<?xml version="1.0" encoding="UTF-8" standalone="no"?>
<!-- Created with Inkscape (http://www.inkscape.org/) -->
<svg xmlns:dc="http://purl.org/dc/elements/1.1/" xmlns:cc="http://creativecommons.org/ns#" xmlns:rdf="http://www.w3.org/1999/02/22-rdf-syntax-ns#" xmlns:svg="http://www.w3.org/2000/svg" xmlns="http://www.w3.org/2000/svg" xmlns:xlink="http://www.w3.org/1999/xlink" xmlns:sodipodi="http://sodipodi.sourceforge.net/DTD/sodipodi-0.dtd" xmlns:inkscape="http://www.inkscape.org/namespaces/inkscape" width="816.81903" height="1183.3033" id="svg3063" version="1.1" inkscape:version="0.48.2 r9819" sodipodi:docname="wizard.svg" inkscape:export-filename="C:\Users\Stacey\Dropbox\DATAJUNK\Knight Night\wizard.png" inkscape:export-xdpi="44.851345" inkscape:export-ydpi="44.851345">
  <defs id="defs3065">
    <linearGradient id="linearGradient4132">
      <stop style="stop-color:#d35f5f;stop-opacity:1;" offset="0" id="stop4134"/>
      <stop style="stop-color:#f2ae8b;stop-opacity:1;" offset="1" id="stop4136"/>
    </linearGradient>
    <linearGradient inkscape:collect="always" xlink:href="#linearGradient4132" id="linearGradient4142" x1="394.52249" y1="413.87045" x2="391.30392" y2="353.31717" gradientUnits="userSpaceOnUse"/>
  </defs>
  <sodipodi:namedview id="base" pagecolor="#ffffff" bordercolor="#666666" borderopacity="1.0" inkscape:pageopacity="0.0" inkscape:pageshadow="2" inkscape:zoom="1.979899" inkscape:cx="783.23146" inkscape:cy="459.21293" inkscape:document-units="px" inkscape:current-layer="g6289" showgrid="false" showguides="true" inkscape:guide-bbox="true" inkscape:window-width="1366" inkscape:window-height="716" inkscape:window-x="-8" inkscape:window-y="-8" inkscape:window-maximized="1" fit-margin-top="0" fit-margin-left="0" fit-margin-right="0" fit-margin-bottom="0"/>
  <metadata id="metadata3068">
    <rdf:RDF>
      <cc:Work rdf:about="">
        <dc:format>image/svg+xml</dc:format>
        <dc:type rdf:resource="http://purl.org/dc/dcmitype/StillImage"/>
        <dc:title/>
      </cc:Work>
    </rdf:RDF>
  </metadata>
  <g inkscape:groupmode="layer" id="layer5" inkscape:label="Feet" sodipodi:insensitive="true" transform="translate(64.211698,151.88148)">
    <path style="fill:#2b1100;fill-opacity:1;stroke:none;display:inline" d="m 379.81734,941.24539 c 14.14214,70.74351 -53.36676,58.58882 -119.198,58.58882 -65.83123,0 -127.27921,4.07349 -127.27921,-28.2842 0,-32.35777 87.71195,-90.91378 153.54318,-90.91378 65.83124,0 86.59099,28.87923 92.93403,60.60916 z" id="path3321" inkscape:connector-curvature="0" sodipodi:nodetypes="sssss"/>
    <path style="fill:#2b1100;fill-opacity:1;stroke:none" d="m 636.39611,921.04238 c 49.90763,21.65817 65.68432,73.03506 -15.15228,98.99492 -108.76207,34.9278 -117.48568,-18.1369 -162.63456,-56.56851 -13.19627,-11.23293 -11.79474,-32.32489 31.31472,-101.01526 55.10192,3.77811 77.03513,28.45562 146.47212,58.58885 z" id="path3329" inkscape:connector-curvature="0" sodipodi:nodetypes="ssscs"/>
  </g>
  <g inkscape:groupmode="layer" id="layer2" inkscape:label="Body" sodipodi:insensitive="true" transform="translate(64.211698,151.88148)">
    <path transform="translate(-12.12183,-64.649763)" style="fill:#000080;fill-opacity:1;stroke:none" d="m 585.88847,589.71235 c 33.08469,67.95684 131.45065,289.68491 85.01529,363.22647 -32.39706,51.30848 -104.92747,93.36248 -240.5788,93.36248 -155.15009,0 -261.8662,-50.11859 -306.66708,-89.07241 -48.752316,-42.38954 53.04529,-259.68115 74.332,-323.06983 44.44671,-132.35574 67.71394,-232.33509 206.07112,-232.33509 138.35719,0 125.25892,71.69508 181.82747,187.88838 z" id="path3264" inkscape:connector-curvature="0" sodipodi:nodetypes="sssssss"/>
  </g>
  <g inkscape:groupmode="layer" id="layer4" inkscape:label="Hands" sodipodi:insensitive="true" transform="translate(64.211698,151.88148)">
    <path sodipodi:type="arc" style="fill:#ffb380;fill-opacity:1;stroke:none" id="path3295" sodipodi:cx="157.5838" sodipodi:cy="737.19458" sodipodi:rx="60.609154" sodipodi:ry="60.609154" d="m 218.19296,737.19458 c 0,33.47351 -27.13565,60.60915 -60.60916,60.60915 -33.47351,0 -60.609152,-27.13564 -60.609152,-60.60915 0,-33.47351 27.135642,-60.60915 60.609152,-60.60915 33.47351,0 60.60916,27.13564 60.60916,60.60915 z" transform="translate(-26.263966,-16.162441)"/>
    <path sodipodi:type="arc" style="fill:#ffb380;fill-opacity:1;stroke:none" id="path3295-9" sodipodi:cx="157.5838" sodipodi:cy="737.19458" sodipodi:rx="60.609154" sodipodi:ry="60.609154" d="m 218.19296,737.19458 c 0,33.47351 -27.13565,60.60915 -60.60916,60.60915 -33.47351,0 -60.609152,-27.13564 -60.609152,-60.60915 0,-33.47351 27.135642,-60.60915 60.609152,-60.60915 33.47351,0 60.60916,27.13564 60.60916,60.60915 z" transform="translate(476.0587,-31.554756)"/>
  </g>
  <g inkscape:groupmode="layer" id="layer9" inkscape:label="Sleve Shadows" sodipodi:insensitive="true" transform="translate(64.211698,151.88148)">
    <rect style="opacity:0.2;fill:#000000;fill-opacity:1;stroke:none" id="rect4247" width="114.28571" height="45.714287" x="334.23737" y="609.95349" ry="12.509583" transform="matrix(0.93002034,0.36750804,-0.36750804,0.93002034,0,0)"/>
    <rect style="opacity:0.2;fill:#000000;fill-opacity:1;stroke:none" id="rect4249" width="115.03955" height="46.548874" x="159.86813" y="912.55713" ry="10.190373" transform="matrix(0.86870668,-0.49532687,0.47903544,0.87779556,0,0)"/>
  </g>
  <g inkscape:groupmode="layer" id="layer3" inkscape:label="Arms" style="display:inline" sodipodi:insensitive="true" transform="translate(64.211698,151.88148)">
    <path style="fill:#00002b;fill-opacity:1;stroke:none" d="m 251.63932,413.3029 c 8.79055,84.87997 -0.67421,266.63476 -32.5807,353.50199 C 191.39549,778.08432 22.667124,686.50461 25.204061,672.34454 79.220062,591.47684 155.19265,417.02405 251.63932,413.3029 z" id="rect3267" inkscape:connector-curvature="0" sodipodi:nodetypes="cccc"/>
    <path style="fill:#00002b;fill-opacity:1;stroke:none" d="m 500.47995,402.37991 c -8.79055,84.87997 0.67421,266.63476 32.5807,353.50199 27.66313,11.27943 196.39149,-80.30028 193.85455,-94.46035 -54.016,-80.8677 -129.98858,-255.32049 -226.43525,-259.04164 z" id="rect3267-0" inkscape:connector-curvature="0" sodipodi:nodetypes="cccc"/>
  </g>
  <g inkscape:label="Head" inkscape:groupmode="layer" id="layer1" sodipodi:insensitive="true" transform="translate(64.211698,151.88148)">
    <path style="fill:#ffb380;fill-opacity:1;stroke:none" d="m 544.53081,259.5471 c 0,36.59505 -33.78936,67.60847 -51.77171,103.84605 -12.41074,25.00984 20.0378,139.01109 -116.79971,136.15395 -135.88366,-2.83723 -86.19154,-105.35607 -117.58755,-142.48108 -40.16179,-47.49034 -45.2696,-34.23884 -45.2696,-91.80463 0,-102.56716 71.63444,-154.2857 160,-154.2857 88.36556,0 171.42857,46.00425 171.42857,148.57141 z" id="path3073" inkscape:connector-curvature="0" sodipodi:nodetypes="sssssss"/>
    <path style="fill:#666666;fill-opacity:1;stroke:none" d="m 507.38796,464.54708 c 0,58.77888 -55.49523,397.85714 -125.71429,397.85714 -70.21907,0 -128.57143,-339.07826 -128.57143,-397.85714 0,-24.24528 -56.02915,-170.88273 -39.72077,-188.77789 6.42976,-7.05536 67.8462,73.41638 75.76097,79.28181 26.42605,19.58367 61.26718,3.06751 91.10266,3.06751 32.21451,0 74.80363,19.51177 95.46458,0.84604 22.5459,-20.36865 61.93708,-127.70776 69.08747,-116.73385 9.85016,15.11737 -37.40919,203.88395 -37.40919,222.31638 z" id="path3137" inkscape:connector-curvature="0" sodipodi:nodetypes="sssssssss"/>
    <rect style="fill:#2b1100;fill-opacity:1;stroke:none" id="rect3319" width="26.05864" height="272.0834" x="-397.06616" y="429.9064" ry="12.509583" transform="matrix(0.8485192,-0.52916459,0.62218887,0.78286717,0,0)" inkscape:transform-center-y="-14.971107"/>
    <g id="g4228">
      <path transform="translate(-12.612039,-24.24366)" d="m 374.28573,330.93362 c 0,22.88037 -11.51268,41.42857 -25.71429,41.42857 -14.20161,0 -25.71428,-18.5482 -25.71428,-41.42857 0,-22.88036 11.51267,-41.42857 25.71428,-41.42857 14.20161,0 25.71429,18.54821 25.71429,41.42857 z" sodipodi:ry="41.42857" sodipodi:rx="25.714285" sodipodi:cy="330.93362" sodipodi:cx="348.57144" id="path3076" style="fill:#000000;fill-opacity:1;stroke:none" sodipodi:type="arc"/>
      <path d="m 374.28573,330.93362 c 0,22.88037 -11.51268,41.42857 -25.71429,41.42857 -14.20161,0 -25.71428,-18.5482 -25.71428,-41.42857 0,-22.88036 11.51267,-41.42857 25.71428,-41.42857 14.20161,0 25.71429,18.54821 25.71429,41.42857 z" sodipodi:ry="41.42857" sodipodi:rx="25.714285" sodipodi:cy="330.93362" sodipodi:cx="348.57144" id="path3076-1" style="fill:#000000;fill-opacity:1;stroke:none" sodipodi:type="arc" transform="translate(77.410393,-25.620776)"/>
      <path transform="translate(-15.469181,-29.957946)" d="m 454.28572,323.79074 c 0,9.46774 -5.11675,17.14286 -11.42857,17.14286 -6.31183,0 -11.42857,-7.67512 -11.42857,-17.14286 0,-9.46774 5.11674,-17.14286 11.42857,-17.14286 6.31182,0 11.42857,7.67512 11.42857,17.14286 z" sodipodi:ry="17.142857" sodipodi:rx="11.428572" sodipodi:cy="323.79074" sodipodi:cx="442.85715" id="path3096" style="fill:#ffffff;fill-opacity:1;stroke:none" sodipodi:type="arc"/>
      <path d="m 454.28572,323.79074 c 0,9.46774 -5.11675,17.14286 -11.42857,17.14286 -6.31183,0 -11.42857,-7.67512 -11.42857,-17.14286 0,-9.46774 5.11674,-17.14286 11.42857,-17.14286 6.31182,0 11.42857,7.67512 11.42857,17.14286 z" sodipodi:ry="17.142857" sodipodi:rx="11.428572" sodipodi:cy="323.79074" sodipodi:cx="442.85715" id="path3096-7" style="fill:#ffffff;fill-opacity:1;stroke:none" sodipodi:type="arc" transform="translate(-105.44675,-27.04932)"/>
      <path sodipodi:nodetypes="sssss" inkscape:connector-curvature="0" id="path3116" d="m 379.12047,275.31594 c 4.34425,18.50192 -13.65103,17.57498 -55.17572,6.5874 -42.48257,-11.24103 -60.79505,-0.51244 -48.53926,-27.04987 3.96959,-8.59537 28.45231,-29.33314 57.09242,-23.68258 28.6401,5.65055 44.4584,34.92797 46.62256,44.14505 z" style="fill:#666666;fill-opacity:1;stroke:none"/>
      <path sodipodi:nodetypes="sssss" inkscape:connector-curvature="0" id="path3116-4" d="m 489.21994,227.7479 c 11.32254,15.26413 -5.56596,21.54648 -48.04433,27.91948 -43.45824,6.52 -56.01769,23.62877 -55.2854,-5.59285 0.23718,-9.46477 14.49373,-38.20863 43.02745,-44.37396 28.53371,-6.16532 54.66174,14.44321 60.30228,22.04733 z" style="fill:#666666;fill-opacity:1;stroke:none"/>
      <path sodipodi:nodetypes="sssss" inkscape:connector-curvature="0" id="path3140" d="m 432.95867,390.93362 c 18.18274,22.05538 -19.81218,31.00968 -36.77521,31.00968 -16.96303,0 -65.05947,-10.78924 -48.89703,-27.33979 8.06981,-8.26358 23.85278,-62.20378 40.81581,-62.20378 16.96303,0 37.56717,49.69214 44.85643,58.53389 z" style="fill:url(#linearGradient4142);fill-opacity:1;stroke:none" transform="matrix(1,0,0,1.1010153,-4.0406102,-65.754225)"/>
      <path sodipodi:nodetypes="sssss" inkscape:connector-curvature="0" id="path3142" d="m 425.95938,419.54708 c 0,3.94489 -24.6686,2.85715 -35.71429,2.85715 -11.0457,0 -40,1.08774 -40,-2.85715 0,-3.94489 27.52573,-18.57143 38.57143,-18.57143 11.04569,0 37.14286,14.62654 37.14286,18.57143 z" style="fill:#ffffff;fill-opacity:1;stroke:none"/>
      <path transform="matrix(1,0,0,1.5416666,-2.0203051,-116.38684)" d="m 232.33509,250.30106 c 0,13.3894 -10.402,24.24366 -23.23351,24.24366 -12.83151,0 -23.23351,-10.85426 -23.23351,-24.24366 0,-13.38941 10.402,-24.24367 23.23351,-24.24367 12.83151,0 23.23351,10.85426 23.23351,24.24367 z" sodipodi:ry="24.243662" sodipodi:rx="23.233509" sodipodi:cy="250.30106" sodipodi:cx="209.10158" id="path3332" style="fill:#ffb380;fill-opacity:1;stroke:none" sodipodi:type="arc"/>
      <path transform="matrix(1,0,0,1.5416666,332.34018,-125.47819)" d="m 232.33509,250.30106 c 0,13.3894 -10.402,24.24366 -23.23351,24.24366 -12.83151,0 -23.23351,-10.85426 -23.23351,-24.24366 0,-13.38941 10.402,-24.24367 23.23351,-24.24367 12.83151,0 23.23351,10.85426 23.23351,24.24367 z" sodipodi:ry="24.243662" sodipodi:rx="23.233509" sodipodi:cy="250.30106" sodipodi:cx="209.10158" id="path3332-4" style="fill:#ffb380;fill-opacity:1;stroke:none" sodipodi:type="arc"/>
    </g>
  </g>
  <g inkscape:groupmode="layer" id="layer7" inkscape:label="Hat Shadow" sodipodi:insensitive="true" transform="translate(64.211698,151.88148)">
    <path transform="matrix(1.1025641,0,0,1.6538461,-41.978022,-133.46758)" style="opacity:0.2;fill:#000000;fill-opacity:1;stroke:none" d="m 548.57141,223.79076 c 2.59136,32.38957 -35.67866,8.58643 -64.24898,15.25066 -30.44379,7.10124 -55.27339,21.89219 -102.89387,21.89219 -48.50412,0 -84.40858,-14.95672 -114.94106,-22.29025 -27.57531,-6.62326 -54.79315,15.61304 -52.20179,-14.8526 1.74204,-20.48054 74.8324,-37.14286 167.14285,-37.14286 92.31045,0 165.50398,16.65854 167.14285,37.14286 z" id="path4240" inkscape:connector-curvature="0" sodipodi:nodetypes="sssssss"/>
  </g>
  <g inkscape:groupmode="layer" id="layer8" inkscape:label="Hat" sodipodi:insensitive="true" transform="translate(64.211698,151.88148)">
    <path style="fill:#000080;fill-opacity:1;stroke:none" d="m 541.67367,21.689949 c 0,34.039071 -7.54606,84.659001 -3.0527,130.593671 1.99385,20.38264 131.42477,88.91708 120.7479,97.77459 -47.90955,39.74564 -82.02666,-18.00271 -128.97456,-35.68593 -45.11787,-16.99394 -116.08648,36.60338 -160.14921,36.60338 -42.88802,0 -70.69323,-11.42869 -130.14611,-22.33136 -29.40647,-5.39265 -26.68974,7.13452 -63.98793,12.05298 -23.7792,3.13572 -31.80849,24.43713 -73.84646,0.40366 -24.643341,-14.08882 107.86161,-67.99167 109.92588,-76.81289 9.07488,-38.77966 49.53804,-110.264861 83.76889,-132.598101 98.46091,-64.23887 -0.86618,-122.798916 2e-5,-183.571429 100.20023,0 245.71428,71.39875 245.71428,173.571429 z" id="path3145" inkscape:connector-curvature="0" sodipodi:nodetypes="sssssssssscs"/>
  </g>
  <g inkscape:groupmode="layer" id="layer6" inkscape:label="Shinies" transform="translate(64.211698,151.88148)">
    <path style="fill:#aaaaff;fill-opacity:1;stroke:none" d="m 354.28571,83.790756 c 0,36.292994 -57.03552,73.795504 -77.54896,73.795504 -20.51343,0 -23.00072,-31.44159 3.26325,-73.795504 19.12661,-30.844035 61.07613,-73.7955074 81.58956,-73.7955074 20.51344,0 -7.30385,37.5025094 -7.30385,73.7955074 z" id="path4145" inkscape:connector-curvature="0" sodipodi:nodetypes="sssss"/>
    <path sodipodi:type="arc" style="fill:#803300;fill-opacity:1;stroke:none" id="path4165" sodipodi:cx="165.71428" sodipodi:cy="949.50507" sodipodi:rx="22.857143" sodipodi:ry="11.428572" d="m 188.57142,949.50507 c 0,6.31182 -10.23349,11.42857 -22.85714,11.42857 -12.62365,0 -22.85714,-5.11675 -22.85714,-11.42857 0,-6.31183 10.23349,-11.42858 22.85714,-11.42858 12.62365,0 22.85714,5.11675 22.85714,11.42858 z" transform="translate(11.428571,5.7142857)"/>
    <path transform="matrix(0.60237048,-0.25215483,0.14227417,1.067591,84.179351,76.946894)" style="fill:#803300;fill-opacity:1;stroke:none" d="m 574.28571,1006.6479 c -29.98118,0 -59.47572,-21.20151 -59.47572,-30.66924 0,-9.46774 29.49454,-3.61645 59.47572,-3.61645 197.57737,13.91664 104.66466,34.69409 0,34.28569 z" id="path4167" inkscape:connector-curvature="0" sodipodi:nodetypes="cscc"/>
    <path style="fill:#373e48;fill-opacity:1;stroke:none" d="m 494.12815,477.16727 c -43.11339,113.59634 -71.48402,298.13096 -113.82408,371.71084 10.12524,40.54387 58.46283,-28.04516 89.30341,-145.56856 29.50813,-112.44586 100.73766,-407.90148 53.21492,-420.19814 -16.80409,-4.34811 10.91541,89.69123 -28.69425,194.05586 z" id="path3069" inkscape:connector-curvature="0" sodipodi:nodetypes="scsss"/>
    <path sodipodi:type="arc" style="fill:#ffd5d5;fill-opacity:1;stroke:none" id="path3072" sodipodi:cx="448.50772" sodipodi:cy="518.62299" sodipodi:rx="20.203051" sodipodi:ry="12.12183" d="m 468.71077,518.62299 c 0,6.6947 -9.04521,12.12183 -20.20305,12.12183 -11.15784,0 -20.20305,-5.42713 -20.20305,-12.12183 0,-6.69471 9.04521,-12.12183 20.20305,-12.12183 11.15784,0 20.20305,5.42712 20.20305,12.12183 z" transform="matrix(1.8,0,0,1,-420.99757,-143.80025)"/>
  </g>
  <g inkscape:groupmode="layer" id="layer11" inkscape:label="Lizard Spikes" transform="translate(64.211698,151.88148)"/>
  <g inkscape:groupmode="layer" id="layer10" inkscape:label="Lizard" transform="translate(64.211698,151.88148)">
    <g id="g6289" transform="translate(-12.121831,4.0406102)">
      <rect ry="0" y="378.08536" x="624.52679" height="12.879563" width="12.879146" id="rect6123" style="fill:#008000;fill-opacity:1;stroke:none"/>
      <path sodipodi:nodetypes="ccccc" inkscape:connector-curvature="0" id="rect6125" d="m 737.82947,66.600319 17.11564,0 -2.81373,15.647517 -14.30191,-1.351202 z" style="fill:#008000;fill-opacity:1;stroke:none" transform="matrix(0.89569619,0.44466655,-0.37759427,0.92597115,0,0)"/>
      <rect transform="matrix(0.91593435,-0.40132812,0.40132812,0.91593435,0,0)" y="628.83508" x="403.99805" height="18.687822" width="20.708128" id="rect6128" style="fill:#008000;fill-opacity:1;stroke:none"/>
      <rect transform="matrix(0.95746945,-0.28853467,0.28853467,0.95746945,0,0)" ry="0" y="596.46246" x="479.98383" height="18.940462" width="25.001167" id="rect6148" style="fill:#008000;fill-opacity:1;stroke:none"/>
      <rect transform="matrix(0.95746945,-0.28853467,0.28853467,0.95746945,0,0)" ry="0" y="610.1369" x="496.04031" height="18.940462" width="25.001167" id="rect6148-1" style="fill:#008000;fill-opacity:1;stroke:none"/>
      <rect transform="matrix(0.99982389,0.01876691,-0.01876691,0.99982389,0,0)" ry="0" y="437.21292" x="682.90851" height="18.940462" width="25.001167" id="rect6148-1-7" style="fill:#008000;fill-opacity:1;stroke:none"/>
      <rect transform="matrix(0.99533403,0.0964892,-0.0964892,0.99533403,0,0)" ry="0" y="397.57077" x="735.9812" height="18.940462" width="25.001167" id="rect6148-1-1" style="fill:#008000;fill-opacity:1;stroke:none"/>
      <rect transform="matrix(0.95589539,0.29370733,-0.24061142,0.97062152,0,0)" ry="0" y="257.43307" x="812.40369" height="20.428724" width="24.59413" id="rect6148-1-15" style="fill:#008000;fill-opacity:1;stroke:none"/>
      <rect transform="matrix(0.81588321,0.57821673,-0.57821673,0.81588321,0,0)" ry="0" y="-4.6800957" x="895.26031" height="18.940462" width="25.001167" id="rect6148-1-2" style="fill:#008000;fill-opacity:1;stroke:none"/>
      <rect transform="matrix(0.70490073,0.70930597,-0.70930597,0.70490073,0,0)" ry="0" y="-142.46919" x="900.42249" height="18.940462" width="25.001167" id="rect6148-1-76" style="fill:#008000;fill-opacity:1;stroke:none"/>
      <rect transform="matrix(0.90912469,0.41652407,-0.41652407,0.90912469,0,0)" ry="0" y="210.25421" x="906.06641" height="18.940462" width="25.001167" id="rect6148-1-14" style="fill:#008000;fill-opacity:1;stroke:none"/>
      <rect transform="matrix(0.67981448,0.73338412,-0.73338412,0.67981448,0,0)" ry="0" y="-140.7495" x="948.06683" height="18.940462" width="25.001167" id="rect6148-1-23" style="fill:#008000;fill-opacity:1;stroke:none"/>
      <rect transform="matrix(0.95746945,-0.28853467,0.28853467,0.95746945,0,0)" ry="0" y="820.86761" x="511.63867" height="18.940462" width="25.001167" id="rect6148-1-22" style="fill:#008000;fill-opacity:1;stroke:none"/>
      <path transform="matrix(0.93739986,0.34825493,-0.34825493,0.93739986,0,0)" style="fill:#008000;fill-opacity:1;stroke:none" d="m 895.69977,357.43198 25.00117,0 0,18.94046 -23.62181,-6.43931 z" id="rect6148-1-16" inkscape:connector-curvature="0" sodipodi:nodetypes="ccccc"/>
      <rect transform="matrix(0.95746945,-0.28853467,0.28853467,0.95746945,0,0)" ry="0" y="820.40918" x="472.98407" height="18.940462" width="25.001167" id="rect6148-1-8" style="fill:#008000;fill-opacity:1;stroke:none"/>
      <rect transform="matrix(0.93890032,-0.34418918,0.24045598,0.97066004,0,0)" ry="0" y="829.37976" x="503.03302" height="14.997849" width="16.824482" id="rect6148-1-5" style="fill:#008000;fill-opacity:1;stroke:none"/>
      <rect transform="matrix(0.8417883,-0.5398078,0.14021618,0.99012091,0,0)" ry="0" y="955.73029" x="620.96173" height="16.251406" width="11.857217" id="rect6148-1-761" style="fill:#008000;fill-opacity:1;stroke:none"/>
      <path sodipodi:nodetypes="cscsc" inkscape:connector-curvature="0" id="rect6148-1-89" d="m 634.58433,574.0444 c 24.64453,-0.70716 36.47989,24.2338 27.25997,22.34978 l -14.35094,-2.9325 c 0,0 1.37451,17.39751 -4.5869,17.28906 -12.5439,-0.22819 -8.32213,-36.70634 -8.32213,-36.70634 z" style="fill:#008000;fill-opacity:1;stroke:none"/>
      <path sodipodi:nodetypes="sssss" inkscape:connector-curvature="0" id="path6020" d="m 644.47732,403.33917 c 0,16.45781 -20.57786,29.7995 -45.96194,29.7995 -25.38408,0 -50.75493,-9.10941 -44.65276,-36.79406 3.04466,-13.8132 30.00174,-14.77553 44.65276,-22.80494 22.26029,-12.19963 45.96194,13.34169 45.96194,29.7995 z" style="fill:#55d400;fill-opacity:1;stroke:none;display:inline" transform="matrix(0.95695049,0.29025119,-0.29025119,0.95695049,142.83547,-156.35625)"/>
      <path sodipodi:nodetypes="sssss" inkscape:connector-curvature="0" id="path6022" d="m 724.52111,570.60576 c -68.73671,14.97244 -39.73552,-24.85623 -72.09805,-59.34798 -32.36254,-34.49176 -65.55425,-57.16491 -46.1072,-74.64907 19.44704,-17.48416 60.26313,-2.54651 93.80954,30.79497 34.0319,33.824 61.01056,95.22652 24.39571,103.20208 z" style="fill:#55d400;fill-opacity:1;stroke:none;display:inline"/>
      <path transform="translate(-0.75761441,0.25253814)" d="m 620.23369,450.81635 c 0,6.41575 -11.75878,11.61675 -26.26396,11.61675 -14.50519,0 -26.26397,-5.201 -26.26397,-11.61675 0,-6.41576 11.75878,-11.61676 26.26397,-11.61676 14.50518,0 26.26396,5.201 26.26396,11.61676 z" sodipodi:ry="11.616755" sodipodi:rx="26.263966" sodipodi:cy="450.81635" sodipodi:cx="593.96973" id="path6025" style="fill:#55d400;fill-opacity:1;stroke:none;display:inline" sodipodi:type="arc"/>
      <path transform="matrix(0.9877235,0.15621234,-0.15621234,0.9877235,96.170928,-90.59368)" d="m 680.84281,544.76056 c 0,6.97365 -11.53264,12.62691 -25.75889,12.62691 -14.22624,0 -25.75889,-5.65326 -25.75889,-12.62691 0,-6.97365 11.53265,-12.62691 25.75889,-12.62691 14.22625,0 25.75889,5.65326 25.75889,12.62691 z" sodipodi:ry="12.626906" sodipodi:rx="25.75889" sodipodi:cy="544.76056" sodipodi:cx="655.08392" id="path6051" style="fill:#55d400;fill-opacity:1;stroke:none" sodipodi:type="arc"/>
      <path sodipodi:nodetypes="scsssss" inkscape:connector-curvature="0" id="path6055" d="m 751.55347,627.59301 c -5.05076,27.94896 -22.18439,42.53854 -43.94164,34.85026 -35.27852,-24.24366 -55.68441,-57.25809 -60.84948,-69.75565 -7.29974,-17.66266 56.64865,52.95199 73.47639,34.90539 9.99176,-10.71547 -9.35063,-55.43568 -1.51523,-59.09391 10.47423,-4.89027 14.04722,-15.28296 19.28937,-7.79513 6.66908,9.52604 18.23444,40.91509 13.54059,66.88904 z" style="fill:#55d400;fill-opacity:1;stroke:none"/>
      <path transform="matrix(0.87380211,0.48628169,-0.48628169,0.87380211,285.39032,-222.26925)" d="m 577.80725,442.98767 c 0,1.95262 -3.27889,3.53553 -7.32361,3.53553 -4.04471,0 -7.3236,-1.58291 -7.3236,-3.53553 0,-1.95262 3.27889,-3.53553 7.3236,-3.53553 4.04472,0 7.32361,1.58291 7.32361,3.53553 z" sodipodi:ry="3.5355339" sodipodi:rx="7.323606" sodipodi:cy="442.98767" sodipodi:cx="570.48364" id="path6062" style="fill:#44aa00;fill-opacity:1;stroke:none" sodipodi:type="arc"/>
      <path transform="matrix(0.99977429,0.02124577,-0.02124577,0.99977429,3.7320075,-3.686634)" d="m 577.80725,442.98767 c 0,1.95262 -3.27889,3.53553 -7.32361,3.53553 -4.04471,0 -7.3236,-1.58291 -7.3236,-3.53553 0,-1.95262 3.27889,-3.53553 7.3236,-3.53553 4.04472,0 7.32361,1.58291 7.32361,3.53553 z" sodipodi:ry="3.5355339" sodipodi:rx="7.323606" sodipodi:cy="442.98767" sodipodi:cx="570.48364" id="path6062-8" style="fill:#44aa00;fill-opacity:1;stroke:none" sodipodi:type="arc"/>
      <path transform="matrix(-0.68152105,0.73179851,-0.73179851,-0.68152105,1283.2054,345.59674)" d="m 577.80725,442.98767 c 0,1.95262 -3.27889,3.53553 -7.32361,3.53553 -4.04471,0 -7.3236,-1.58291 -7.3236,-3.53553 0,-1.95262 3.27889,-3.53553 7.3236,-3.53553 4.04472,0 7.32361,1.58291 7.32361,3.53553 z" sodipodi:ry="3.5355339" sodipodi:rx="7.323606" sodipodi:cy="442.98767" sodipodi:cx="570.48364" id="path6062-82" style="fill:#44aa00;fill-opacity:1;stroke:none" sodipodi:type="arc"/>
      <path transform="matrix(0.87380211,0.48628169,-0.48628169,0.87380211,348.61688,-128.2752)" d="m 577.80725,442.98767 c 0,1.95262 -3.27889,3.53553 -7.32361,3.53553 -4.04471,0 -7.3236,-1.58291 -7.3236,-3.53553 0,-1.95262 3.27889,-3.53553 7.3236,-3.53553 4.04472,0 7.32361,1.58291 7.32361,3.53553 z" sodipodi:ry="3.5355339" sodipodi:rx="7.323606" sodipodi:cy="442.98767" sodipodi:cx="570.48364" id="path6062-4" style="fill:#44aa00;fill-opacity:1;stroke:none" sodipodi:type="arc"/>
      <path transform="matrix(0.99977429,0.02124577,-0.02124577,0.99977429,66.958575,90.307413)" d="m 577.80725,442.98767 c 0,1.95262 -3.27889,3.53553 -7.32361,3.53553 -4.04471,0 -7.3236,-1.58291 -7.3236,-3.53553 0,-1.95262 3.27889,-3.53553 7.3236,-3.53553 4.04472,0 7.32361,1.58291 7.32361,3.53553 z" sodipodi:ry="3.5355339" sodipodi:rx="7.323606" sodipodi:cy="442.98767" sodipodi:cx="570.48364" id="path6062-8-5" style="fill:#44aa00;fill-opacity:1;stroke:none" sodipodi:type="arc"/>
      <path transform="matrix(-0.68152105,0.73179851,-0.73179851,-0.68152105,1346.432,439.59079)" d="m 577.80725,442.98767 c 0,1.95262 -3.27889,3.53553 -7.32361,3.53553 -4.04471,0 -7.3236,-1.58291 -7.3236,-3.53553 0,-1.95262 3.27889,-3.53553 7.3236,-3.53553 4.04472,0 7.32361,1.58291 7.32361,3.53553 z" sodipodi:ry="3.5355339" sodipodi:rx="7.323606" sodipodi:cy="442.98767" sodipodi:cx="570.48364" id="path6062-82-5" style="fill:#44aa00;fill-opacity:1;stroke:none" sodipodi:type="arc"/>
      <path d="m 610.38466,393.61646 c 0,6.34601 -2.9397,11.49048 -6.566,11.49048 -3.62629,0 -6.56599,-5.14447 -6.56599,-11.49048 0,-6.34602 2.9397,-11.49049 6.56599,-11.49049 3.6263,0 6.566,5.14447 6.566,11.49049 z" sodipodi:ry="11.490485" sodipodi:rx="6.5659914" sodipodi:cy="393.61646" sodipodi:cx="603.81866" id="path6113" style="fill:#000000;fill-opacity:1;stroke:none" sodipodi:type="arc"/>
      <path d="m 569.97858,389.82837 c 0,1.88288 -1.63945,3.40926 -3.66181,3.40926 -2.02236,0 -3.6618,-1.52638 -3.6618,-3.40926 0,-1.88289 1.63944,-3.40927 3.6618,-3.40927 2.02236,0 3.66181,1.52638 3.66181,3.40927 z" sodipodi:ry="3.4092648" sodipodi:rx="3.661803" sodipodi:cy="389.82837" sodipodi:cx="566.31677" id="path6115" style="fill:#000000;fill-opacity:1;stroke:none" sodipodi:type="arc"/>
      <path sodipodi:nodetypes="ccccccc" inkscape:connector-curvature="0" id="rect6117" d="m 532.85547,396.52066 9.59645,5.3033 12.6269,1.26269 1.26269,3.53553 c -3.71738,-0.39429 -9.30733,-2.35975 -13.70511,-1.85078 -3.8181,0.44189 -6.30228,3.24638 -11.29616,4.37616 6.91765,-2.76394 5.92559,-10.52931 1.51523,-12.6269 z" style="fill:#ff0000;fill-opacity:1;stroke:none"/>
      <path d="m 609.37451,390.45972 c 0,2.23156 -1.35678,4.04061 -3.03045,4.04061 -1.67368,0 -3.03046,-1.80905 -3.03046,-4.04061 0,-2.23157 1.35678,-4.04061 3.03046,-4.04061 1.67367,0 3.03045,1.80904 3.03045,4.04061 z" sodipodi:ry="4.0406103" sodipodi:rx="3.0304577" sodipodi:cy="390.45972" sodipodi:cx="606.34406" id="path6120" style="fill:#ffffff;fill-opacity:1;stroke:none" sodipodi:type="arc"/>
    </g>
  </g>
</svg>